  0
SECTION
  2
HEADER
  9
$ACADVER
  1
AC1006
  9
$DWGCODEPAGE
  3
ansi_1252
  9
$INSBASE
 10
0.0
 20
0.0
 30
0.0
  9
$EXTMIN
 10
-51.0
 20
-62.0
  9
$EXTMAX
 10
28.0
 20
46.5
  9
$LIMMIN
 10
0.0
 20
0.0
  9
$LIMMAX
 10
12.0
 20
9.0
  9
$ORTHOMODE
 70
     0
  9
$REGENMODE
 70
     1
  9
$FILLMODE
 70
     1
  9
$QTEXTMODE
 70
     0
  9
$MIRRTEXT
 70
     1
  9
$DRAGMODE
 70
     2
  9
$LTSCALE
 40
1.0
  9
$OSMODE
 70
    37
  9
$ATTMODE
 70
     1
  9
$TEXTSIZE
 40
0.2
  9
$TRACEWID
 40
0.05
  9
$TEXTSTYLE
  7
STANDARD
  9
$CLAYER
  8
0
  9
$CELTYPE
  6
BYLAYER
  9
$CECOLOR
 62
   256
  9
$DIMSCALE
 40
1.0
  9
$DIMASZ
 40
0.18
  9
$DIMEXO
 40
0.0625
  9
$DIMDLI
 40
0.38
  9
$DIMRND
 40
0.0
  9
$DIMDLE
 40
0.0
  9
$DIMEXE
 40
0.18
  9
$DIMTP
 40
0.0
  9
$DIMTM
 40
0.0
  9
$DIMTXT
 40
0.18
  9
$DIMCEN
 40
0.09
  9
$DIMTSZ
 40
0.0
  9
$DIMTOL
 70
     0
  9
$DIMLIM
 70
     0
  9
$DIMTIH
 70
     1
  9
$DIMTOH
 70
     1
  9
$DIMSE1
 70
     0
  9
$DIMSE2
 70
     0
  9
$DIMTAD
 70
     0
  9
$DIMZIN
 70
     0
  9
$DIMBLK
  1

  9
$DIMASO
 70
     1
  9
$DIMSHO
 70
     1
  9
$DIMPOST
  1

  9
$DIMAPOST
  1

  9
$DIMALT
 70
     0
  9
$DIMALTD
 70
     2
  9
$DIMALTF
 40
25.4
  9
$DIMLFAC
 40
1.0
  9
$DIMTOFL
 70
     0
  9
$DIMTVP
 40
0.0
  9
$DIMTIX
 70
     0
  9
$DIMSOXD
 70
     0
  9
$DIMSAH
 70
     0
  9
$DIMBLK1
  1

  9
$DIMBLK2
  1

  9
$LUNITS
 70
     2
  9
$LUPREC
 70
     4
  9
$SKETCHINC
 40
0.1
  9
$FILLETRAD
 40
0.0
  9
$AUNITS
 70
     0
  9
$AUPREC
 70
     0
  9
$MENU
  1
.
  9
$ELEVATION
 40
0.0
  9
$THICKNESS
 40
0.0
  9
$LIMCHECK
 70
     0
  9
$CHAMFERA
 40
0.0
  9
$CHAMFERB
 40
0.0
  9
$SKPOLY
 70
     0
  9
$TDCREATE
 40
2460165.070779757
  9
$TDUPDATE
 40
2460165.070781632
  9
$TDINDWG
 40
0.0000000116
  9
$TDUSRTIMER
 40
0.0000000116
  9
$USRTIMER
 70
     1
  9
$ANGBASE
 50
0.0
  9
$ANGDIR
 70
     0
  9
$PDMODE
 70
     0
  9
$PDSIZE
 40
0.0
  9
$PLINEWID
 40
0.0
  9
$COORDS
 70
     1
  9
$SPLFRAME
 70
     0
  9
$SPLINETYPE
 70
     6
  9
$SPLINESEGS
 70
     8
  9
$ATTDIA
 70
     0
  9
$ATTREQ
 70
     1
  9
$HANDLING
 70
     1
  9
$HANDSEED
  5
5F7
  9
$SURFTAB1
 70
     6
  9
$SURFTAB2
 70
     6
  9
$SURFTYPE
 70
     6
  9
$SURFU
 70
     6
  9
$SURFV
 70
     6
  9
$UCSNAME
  2

  9
$UCSORG
 10
0.0
 20
0.0
 30
0.0
  9
$UCSXDIR
 10
1.0
 20
0.0
 30
0.0
  9
$UCSYDIR
 10
0.0
 20
1.0
 30
0.0
  9
$USERI1
 70
     0
  9
$USERI2
 70
     0
  9
$USERI3
 70
     0
  9
$USERI4
 70
     0
  9
$USERI5
 70
     0
  9
$USERR1
 40
0.0
  9
$USERR2
 40
0.0
  9
$USERR3
 40
0.0
  9
$USERR4
 40
0.0
  9
$USERR5
 40
0.0
  9
$WORLDVIEW
 70
     1
  0
ENDSEC
  0
SECTION
  2
TABLES
  0
TABLE
  2
VPORT
 70
     1
  0
VPORT
  2
*ACTIVE
 70
     0
 10
0.0
 20
0.0
 11
1.0
 21
1.0
 12
-103.0319797076657
 22
44.05698738726589
 13
0.0
 23
0.0
 14
0.5
 24
0.5
 15
0.5
 25
0.5
 16
0.0
 26
0.0
 36
1.0
 17
0.0
 27
0.0
 37
0.0
 40
233.652225577812
 41
1.576409495548962
 42
50.0
 43
0.0
 44
0.0
 50
0.0
 51
0.0
 71
     0
 72
   100
 73
     1
 74
     3
 75
     0
 76
     0
 77
     0
 78
     0
  0
ENDTAB
  0
TABLE
  2
LTYPE
 70
    52
  0
LTYPE
  2
CONTINUOUS
 70
     0
  3
Solid line
 72
    65
 73
     0
 40
0.0
  0
LTYPE
  2
DASHDOT2
 70
     0
  3
Dash dot (.5x) _._._._._._._._._._._._._._._.
 72
    65
 73
     4
 40
12.7
 49
6.35
 49
-3.175
 49
0.0
 49
-3.175
  0
LTYPE
  2
DASHDOTX2
 70
     0
  3
Dash dot (2x) ____  .  ____  .  ____  .  ___
 72
    65
 73
     4
 40
50.8
 49
25.4
 49
-12.7
 49
0.0
 49
-12.7
  0
LTYPE
  2
CUTRIGHT2
 70
     0
  3
G42 reversed----\----\----\----
 72
    65
 73
     2
 40
10.16
 49
5.08
 49
5.08
  0
LTYPE
  2
DASHDOT
 70
     0
  3
Dash dot __ . __ . __ . __ . __ . __ . __ . __
 72
    65
 73
     4
 40
25.4
 49
12.7
 49
-6.35
 49
0.0
 49
-6.35
  0
LTYPE
  2
DASHEDX2
 70
     0
  3
Dashed (2x) ____  ____  ____  ____  ____  ___
 72
    65
 73
     2
 40
38.09999999999999
 49
25.4
 49
-12.7
  0
LTYPE
  2
DIVIDE
 70
     0
  3
Divide ____ . . ____ . . ____ . . ____ . . ____
 72
    65
 73
     6
 40
31.75
 49
12.7
 49
-6.35
 49
0.0
 49
-6.35
 49
0.0
 49
-6.35
  0
LTYPE
  2
DASHED
 70
     0
  3
Dashed __ __ __ __ __ __ __ __ __ __ __ __ __ _
 72
    65
 73
     2
 40
19.05
 49
12.7
 49
-6.35
  0
LTYPE
  2
DASHED2
 70
     0
  3
Dashed (.5x) _ _ _ _ _ _ _ _ _ _ _ _ _ _ _ _ _ 
 72
    65
 73
     2
 40
9.524999999999999
 49
6.35
 49
-3.175
  0
LTYPE
  2
DOT
 70
     0
  3
Dot . . . . . . . . . . . . . . . . . . . . . . . .
 72
    65
 73
     2
 40
6.35
 49
0.0
 49
-6.35
  0
LTYPE
  2
DOT2
 70
     0
  3
Dot (.5x) ........................................
 72
    65
 73
     2
 40
3.175
 49
0.0
 49
-3.175
  0
LTYPE
  2
DIVIDE2
 70
     0
  3
Divide (.5x) __..__..__..__..__..__..__..__.._
 72
    65
 73
     6
 40
15.875
 49
6.35
 49
-3.175
 49
0.0
 49
-3.175
 49
0.0
 49
-3.175
  0
LTYPE
  2
DIVIDEX2
 70
     0
  3
Divide (2x) ________  .  .  ________  .  .  _
 72
    65
 73
     6
 40
63.5
 49
25.4
 49
-12.7
 49
0.0
 49
-12.7
 49
0.0
 49
-12.7
  0
LTYPE
  2
DRAINAGE2
 70
     0
  3
Drainage reversed----<----<----<----
 72
    65
 73
     2
 40
10.16
 49
5.08
 49
5.08
  0
LTYPE
  2
FENCELINE1
 70
     0
  3
Fenceline circle ----0-----0----0-----0----0-----0--
 72
    65
 73
     4
 40
36.83
 49
6.35
 49
-2.54
 49
-2.54
 49
25.4
  0
LTYPE
  2
DOTX2
 70
     0
  3
Dot (2x) .  .  .  .  .  .  .  .  .  .  .  .  .  .
 72
    65
 73
     2
 40
12.7
 49
0.0
 49
-12.7
  0
LTYPE
  2
DRAINAGE
 70
     0
  3
Drainage ---->---->---->----
 72
    65
 73
     2
 40
10.16
 49
5.08
 49
5.08
  0
LTYPE
  2
ACAD_ISO12W100
 70
     0
  3
ISO dash double-dot __ . . __ . . __ . . __ . . 
 72
    65
 73
     6
 40
21.0
 49
12.0
 49
-3.0
 49
0.0
 49
-3.0
 49
0.0
 49
-3.0
  0
LTYPE
  2
ACAD_ISO13W100
 70
     0
  3
ISO double-dash double-dot __ __ . . __ __ . . _
 72
    65
 73
     8
 40
36.0
 49
12.0
 49
-3.0
 49
12.0
 49
-3.0
 49
0.0
 49
-3.0
 49
0.0
 49
-3.0
  0
LTYPE
  2
ACAD_ISO10W100
 70
     0
  3
ISO dash dot __ . __ . __ . __ . __ . __ . __ . 
 72
    65
 73
     4
 40
18.0
 49
12.0
 49
-3.0
 49
0.0
 49
-3.0
  0
LTYPE
  2
ACAD_ISO11W100
 70
     0
  3
ISO double-dash dot __ __ . __ __ . __ __ . __ _
 72
    65
 73
     6
 40
33.0
 49
12.0
 49
-3.0
 49
12.0
 49
-3.0
 49
0.0
 49
-3.0
  0
LTYPE
  2
BATTING
 70
     0
  3
Batting SSSSSSSSSSSSSSSSSSSSSSSSSSSSSSSSSSSSSSSSSSSSSSS
 72
    65
 73
     4
 40
10.16254
 49
0.00254
 49
-2.54
 49
-5.08
 49
-2.54
  0
LTYPE
  2
BORDER
 70
     0
  3
Border __ __ . __ __ . __ __ . __ __ . __ __ .
 72
    65
 73
     6
 40
44.45
 49
12.7
 49
-6.35
 49
12.7
 49
-6.35
 49
0.0
 49
-6.35
  0
LTYPE
  2
ACAD_ISO14W100
 70
     0
  3
ISO dash triple-dot __ . . . __ . . . __ . . . _
 72
    65
 73
     8
 40
24.0
 49
12.0
 49
-3.0
 49
0.0
 49
-3.0
 49
0.0
 49
-3.0
 49
0.0
 49
-3.0
  0
LTYPE
  2
ACAD_ISO15W100
 70
     0
  3
ISO double-dash triple-dot __ __ . . . __ __ . .
 72
    65
 73
    10
 40
39.0
 49
12.0
 49
-3.0
 49
12.0
 49
-3.0
 49
0.0
 49
-3.0
 49
0.0
 49
-3.0
 49
0.0
 49
-3.0
  0
LTYPE
  2
CENTER
 70
     0
  3
Center ____ _ ____ _ ____ _ ____ _ ____ _ ____
 72
    65
 73
     4
 40
50.8
 49
31.75
 49
-6.35
 49
6.35
 49
-6.35
  0
LTYPE
  2
CENTER2
 70
     0
  3
Center (.5x) ___ _ ___ _ ___ _ ___ _ ___ _ ___
 72
    65
 73
     4
 40
28.575
 49
19.05
 49
-3.175
 49
3.175
 49
-3.175
  0
LTYPE
  2
BORDER2
 70
     0
  3
Border (.5x) __.__.__.__.__.__.__.__.__.__.__.
 72
    65
 73
     6
 40
22.225
 49
6.35
 49
-3.175
 49
6.35
 49
-3.175
 49
0.0
 49
-3.175
  0
LTYPE
  2
BORDERX2
 70
     0
  3
Border (2x) ____  ____  .  ____  ____  .  ___
 72
    65
 73
     6
 40
88.89999999999999
 49
25.4
 49
-12.7
 49
25.4
 49
-12.7
 49
0.0
 49
-12.7
  0
LTYPE
  2
CUTLEFT2
 70
     0
  3
G41 reversed----/----/----/----
 72
    65
 73
     2
 40
10.16
 49
5.08
 49
5.08
  0
LTYPE
  2
CUTRIGHT
 70
     0
  3
G42 ----/----/-----/---
 72
    65
 73
     2
 40
10.16
 49
5.08
 49
5.08
  0
LTYPE
  2
CENTERX2
 70
     0
  3
Center (2x) ________  __  ________  __  _____
 72
    65
 73
     4
 40
101.6
 49
63.5
 49
-12.7
 49
12.7
 49
-12.7
  0
LTYPE
  2
CUTLEFT
 70
     0
  3
G41 ----\----\----\----
 72
    65
 73
     2
 40
10.16
 49
5.08
 49
5.08
  0
LTYPE
  2
ACAD_ISO04W100
 70
     0
  3
ISO long-dash dot ____ . ____ . ____ . ____ . _
 72
    65
 73
     4
 40
30.0
 49
24.0
 49
-3.0
 49
0.0
 49
-3.0
  0
LTYPE
  2
ACAD_ISO05W100
 70
     0
  3
ISO long-dash double-dot ____ .. ____ .. ____ . 
 72
    65
 73
     6
 40
33.0
 49
24.0
 49
-3.0
 49
0.0
 49
-3.0
 49
0.0
 49
-3.0
  0
LTYPE
  2
ACAD_ISO02W100
 70
     0
  3
ISO dash __ __ __ __ __ __ __ __ __ __ __ __ __
 72
    65
 73
     2
 40
15.0
 49
12.0
 49
-3.0
  0
LTYPE
  2
ACAD_ISO03W100
 70
     0
  3
ISO dash space __    __    __    __    __    __
 72
    65
 73
     2
 40
30.0
 49
12.0
 49
-18.0
  0
LTYPE
  2
ACAD_ISO08W100
 70
     0
  3
ISO long-dash short-dash ____ __ ____ __ ____ _
 72
    65
 73
     4
 40
36.0
 49
24.0
 49
-3.0
 49
6.0
 49
-3.0
  0
LTYPE
  2
ACAD_ISO09W100
 70
     0
  3
ISO long-dash double-short-dash ____ __ __ ____
 72
    65
 73
     6
 40
45.0
 49
24.0
 49
-3.0
 49
6.0
 49
-3.0
 49
6.0
 49
-3.0
  0
LTYPE
  2
ACAD_ISO06W100
 70
     0
  3
ISO long-dash triple-dot ____ ... ____ ... ____
 72
    65
 73
     8
 40
36.0
 49
24.0
 49
-3.0
 49
0.0
 49
-3.0
 49
0.0
 49
-3.0
 49
0.0
 49
-3.0
  0
LTYPE
  2
ACAD_ISO07W100
 70
     0
  3
ISO dot . . . . . . . . . . . . . . . . . . . . 
 72
    65
 73
     2
 40
3.0
 49
0.0
 49
-3.0
  0
LTYPE
  2
HIDDEN
 70
     0
  3
Hidden __ __ __ __ __ __ __ __ __ __ __ __ __ __
 72
    65
 73
     2
 40
9.524999999999999
 49
6.35
 49
-3.175
  0
LTYPE
  2
HIDDEN2
 70
     0
  3
Hidden (.5x) _ _ _ _ _ _ _ _ _ _ _ _ _ _ _ _ _ 
 72
    65
 73
     2
 40
4.762499999999999
 49
3.175
 49
-1.5875
  0
LTYPE
  2
FENCELINE2
 70
     0
  3
Fenceline square ----[]-----[]----[]-----[]----[]---
 72
    65
 73
     4
 40
36.83
 49
6.35
 49
-2.54
 49
-2.54
 49
25.4
  0
LTYPE
  2
GAS_LINE
 70
     0
  3
Gas line ----GAS----GAS----GAS----GAS----GAS----GAS--
 72
    65
 73
     3
 40
24.13
 49
12.7
 49
-5.08
 49
-6.35
  0
LTYPE
  2
PHANTOM
 70
     0
  3
Phantom ______  __  __  ______  __  __  ______ 
 72
    65
 73
     6
 40
63.50000000000001
 49
31.75
 49
-6.35
 49
6.35
 49
-6.35
 49
6.35
 49
-6.35
  0
LTYPE
  2
PHANTOM2
 70
     0
  3
Phantom (.5x) ___ _ _ ___ _ _ ___ _ _ ___ _ _
 72
    65
 73
     6
 40
31.75
 49
15.875
 49
-3.175
 49
3.175
 49
-3.175
 49
3.175
 49
-3.175
  0
LTYPE
  2
HIDDENX2
 70
     0
  3
Hidden (2x) ____ ____ ____ ____ ____ ____ ____ 
 72
    65
 73
     2
 40
19.05
 49
12.7
 49
-6.35
  0
LTYPE
  2
HOT_WATER_SUPPLY
 70
     0
  3
Hot water supply ---- HW ---- HW ---- HW ----
 72
    65
 73
     3
 40
22.86
 49
12.7
 49
-5.08
 49
-5.08
  0
LTYPE
  2
ZIGZAG
 70
     0
  3
Zig zag /\/\/\/\/\/\/\/\/\/\/\/\/\/\/\/\/\/\/\/\/\/\/\/
 72
    65
 73
     4
 40
20.32254
 49
0.00254
 49
-5.08
 49
-10.16
 49
-5.08
  0
LTYPE
  2
PHANTOMX2
 70
     0
  3
Phantom (2x) ____________    ____    ____   _
 72
    65
 73
     6
 40
127.0
 49
63.5
 49
-12.7
 49
12.7
 49
-12.7
 49
12.7
 49
-12.7
  0
LTYPE
  2
TRACKS
 70
     0
  3
Tracks -|-|-|-|-|-|-|-|-|-|-|-|-|-|-|-|-|-|-|-|-|-|-|-|-
 72
    65
 73
     2
 40
7.62
 49
3.81
 49
3.81
  0
ENDTAB
  0
TABLE
  2
LAYER
 70
     1
  0
LAYER
  2
0
 70
     0
 62
     7
  6
CONTINUOUS
  0
ENDTAB
  0
TABLE
  2
STYLE
 70
     2
  0
STYLE
  2
STANDARD
 70
     0
 40
0.0
 41
1.0
 50
0.0
 71
     0
 42
0.2
  3
txt
  4

  0
STYLE
  2
QCADDIMTEXTSTYLE
 70
     0
 40
0.0
 41
1.0
 50
0.0
 71
     0
 42
0.2
  3

  4

  0
ENDTAB
  0
TABLE
  2
VIEW
 70
     0
  0
ENDTAB
  0
TABLE
  2
UCS
 70
     0
  0
ENDTAB
  0
ENDSEC
  0
SECTION
  2
BLOCKS
  0
ENDSEC
  0
SECTION
  2
ENTITIES
  0
POLYLINE
  5
45
  8
0
 66
     1
 10
0.0
 20
0.0
 30
0.0
  0
VERTEX
  5
4E0
  8
0
 10
0.0
 20
0.0
 30
0.0
  0
VERTEX
  5
4E1
  8
0
 10
0.0
 20
0.0
 30
0.0
  0
SEQEND
  5
5EA
  8
0
  0
LINE
  5
55
  8
0
 10
9.0
 20
-15.0
 30
0.0
 11
27.0
 21
-15.0
 31
0.0
  0
LINE
  5
56
  8
0
 10
27.0
 20
-15.0
 30
0.0
 11
27.0
 21
-10.6844
 31
0.0
  0
LINE
  5
6E
  8
0
 10
27.0
 20
10.6844
 30
0.0
 11
27.0
 21
15.0
 31
0.0
  0
LINE
  5
6F
  8
0
 10
27.0
 20
15.0
 30
0.0
 11
9.0
 21
15.0
 31
0.0
  0
LINE
  5
72
  8
0
 10
-50.0
 20
46.5
 30
0.0
 11
-50.0
 21
46.0
 31
0.0
  0
LINE
  5
73
  8
0
 10
-50.0
 20
46.0
 30
0.0
 11
-51.0
 21
46.0
 31
0.0
  0
LINE
  5
74
  8
0
 10
-51.0
 20
46.0
 30
0.0
 11
-51.0
 21
43.0
 31
0.0
  0
LINE
  5
76
  8
0
 10
-22.0
 20
43.0
 30
0.0
 11
-22.0
 21
26.4473
 31
0.0
  0
LINE
  5
77
  8
0
 10
-22.0
 20
26.4473
 30
0.0
 11
-21.4764
 21
27.1115
 31
0.0
  0
LINE
  5
78
  8
0
 10
-21.4764
 20
27.1115
 30
0.0
 11
-20.8928
 21
27.7428
 31
0.0
  0
LINE
  5
79
  8
0
 10
-20.8928
 20
27.7428
 30
0.0
 11
-20.2615
 21
28.3264
 31
0.0
  0
LINE
  5
7A
  8
0
 10
-20.2615
 20
28.3264
 30
0.0
 11
-19.5862
 21
28.8587
 31
0.0
  0
LINE
  5
7B
  8
0
 10
-19.5862
 20
28.8587
 30
0.0
 11
-18.8714
 21
29.3364
 31
0.0
  0
LINE
  5
7C
  8
0
 10
-18.8714
 20
29.3364
 30
0.0
 11
-18.1212
 21
29.7565
 31
0.0
  0
LINE
  5
7D
  8
0
 10
-18.1212
 20
29.7565
 30
0.0
 11
-17.3404
 21
30.1165
 31
0.0
  0
LINE
  5
7E
  8
0
 10
-17.3404
 20
30.1165
 30
0.0
 11
-16.5337
 21
30.4141
 31
0.0
  0
LINE
  5
7F
  8
0
 10
-16.5337
 20
30.4141
 30
0.0
 11
-15.7062
 21
30.6475
 31
0.0
  0
LINE
  5
80
  8
0
 10
-15.7062
 20
30.6475
 30
0.0
 11
-14.863
 21
30.8152
 31
0.0
  0
LINE
  5
81
  8
0
 10
-14.863
 20
30.8152
 30
0.0
 11
-14.0091
 21
30.9162
 31
0.0
  0
LINE
  5
82
  8
0
 10
-14.0091
 20
30.9162
 30
0.0
 11
-13.15
 21
30.95
 31
0.0
  0
LINE
  5
83
  8
0
 10
-13.15
 20
30.95
 30
0.0
 11
-12.2909
 21
30.9162
 31
0.0
  0
LINE
  5
84
  8
0
 10
-12.2909
 20
30.9162
 30
0.0
 11
-11.437
 21
30.8152
 31
0.0
  0
LINE
  5
85
  8
0
 10
-11.437
 20
30.8152
 30
0.0
 11
-10.5938
 21
30.6475
 31
0.0
  0
LINE
  5
86
  8
0
 10
-10.5938
 20
30.6475
 30
0.0
 11
-9.76626
 21
30.4141
 31
0.0
  0
LINE
  5
87
  8
0
 10
-9.76626
 20
30.4141
 30
0.0
 11
-8.95962
 21
30.1165
 31
0.0
  0
LINE
  5
88
  8
0
 10
-8.95962
 20
30.1165
 30
0.0
 11
-8.1788
 21
29.7565
 31
0.0
  0
LINE
  5
89
  8
0
 10
-8.1788
 20
29.7565
 30
0.0
 11
-7.42864
 21
29.3364
 31
0.0
  0
LINE
  5
8A
  8
0
 10
-7.42864
 20
29.3364
 30
0.0
 11
-6.71375
 21
28.8587
 31
0.0
  0
LINE
  5
8B
  8
0
 10
-6.71375
 20
28.8587
 30
0.0
 11
-6.03854
 21
28.3264
 31
0.0
  0
LINE
  5
8C
  8
0
 10
-6.03854
 20
28.3264
 30
0.0
 11
-5.40718
 21
27.7428
 31
0.0
  0
LINE
  5
8D
  8
0
 10
-5.40718
 20
27.7428
 30
0.0
 11
-4.82356
 21
27.1115
 31
0.0
  0
LINE
  5
8E
  8
0
 10
-4.82356
 20
27.1115
 30
0.0
 11
-4.29126
 21
26.4362
 31
0.0
  0
LINE
  5
8F
  8
0
 10
-4.29126
 20
26.4362
 30
0.0
 11
-3.81359
 21
25.7214
 31
0.0
  0
LINE
  5
90
  8
0
 10
-3.81359
 20
25.7214
 30
0.0
 11
-3.39348
 21
24.9712
 31
0.0
  0
LINE
  5
91
  8
0
 10
-3.39348
 20
24.9712
 30
0.0
 11
-3.03352
 21
24.1904
 31
0.0
  0
LINE
  5
92
  8
0
 10
-3.03352
 20
24.1904
 30
0.0
 11
-2.73593
 21
23.3837
 31
0.0
  0
LINE
  5
93
  8
0
 10
-2.73593
 20
23.3837
 30
0.0
 11
-2.50255
 21
22.5562
 31
0.0
  0
LINE
  5
94
  8
0
 10
-2.50255
 20
22.5562
 30
0.0
 11
-2.33481
 21
21.713
 31
0.0
  0
LINE
  5
95
  8
0
 10
-2.33481
 20
21.713
 30
0.0
 11
-2.23376
 21
20.8591
 31
0.0
  0
LINE
  5
96
  8
0
 10
-2.23376
 20
20.8591
 30
0.0
 11
-2.2
 21
20.0
 31
0.0
  0
LINE
  5
97
  8
0
 10
-2.2
 20
20.0
 30
0.0
 11
-2.23376
 21
19.1409
 31
0.0
  0
LINE
  5
98
  8
0
 10
-2.23376
 20
19.1409
 30
0.0
 11
-2.33481
 21
18.287
 31
0.0
  0
LINE
  5
99
  8
0
 10
-2.33481
 20
18.287
 30
0.0
 11
-2.50255
 21
17.4438
 31
0.0
  0
LINE
  5
9A
  8
0
 10
-2.50255
 20
17.4438
 30
0.0
 11
-2.73593
 21
16.6163
 31
0.0
  0
LINE
  5
9B
  8
0
 10
-2.73593
 20
16.6163
 30
0.0
 11
-3.03352
 21
15.8096
 31
0.0
  0
LINE
  5
9C
  8
0
 10
-3.03352
 20
15.8096
 30
0.0
 11
-3.39348
 21
15.0288
 31
0.0
  0
LINE
  5
9D
  8
0
 10
-3.39348
 20
15.0288
 30
0.0
 11
-3.81359
 21
14.2786
 31
0.0
  0
LINE
  5
9E
  8
0
 10
-3.81359
 20
14.2786
 30
0.0
 11
-4.29126
 21
13.5638
 31
0.0
  0
LINE
  5
9F
  8
0
 10
-4.29126
 20
13.5638
 30
0.0
 11
-4.82356
 21
12.8885
 31
0.0
  0
LINE
  5
A0
  8
0
 10
-4.82356
 20
12.8885
 30
0.0
 11
-5.40718
 21
12.2572
 31
0.0
  0
LINE
  5
A1
  8
0
 10
-5.40718
 20
12.2572
 30
0.0
 11
-6.03854
 21
11.6736
 31
0.0
  0
LINE
  5
A2
  8
0
 10
-6.03854
 20
11.6736
 30
0.0
 11
-6.71375
 21
11.1413
 31
0.0
  0
LINE
  5
A3
  8
0
 10
-6.71375
 20
11.1413
 30
0.0
 11
-7.42864
 21
10.6636
 31
0.0
  0
LINE
  5
A4
  8
0
 10
-7.42864
 20
10.6636
 30
0.0
 11
-8.1788
 21
10.2435
 31
0.0
  0
LINE
  5
A5
  8
0
 10
-8.1788
 20
10.2435
 30
0.0
 11
-8.95962
 21
9.88352
 31
0.0
  0
LINE
  5
A6
  8
0
 10
-8.95962
 20
9.88352
 30
0.0
 11
-9.76626
 21
9.58593
 31
0.0
  0
LINE
  5
A7
  8
0
 10
-9.76626
 20
9.58593
 30
0.0
 11
-10.5938
 21
9.35255
 31
0.0
  0
LINE
  5
A8
  8
0
 10
-10.5938
 20
9.35255
 30
0.0
 11
-11.437
 21
9.18481
 31
0.0
  0
LINE
  5
A9
  8
0
 10
-11.437
 20
9.18481
 30
0.0
 11
-12.2909
 21
9.08376
 31
0.0
  0
LINE
  5
AA
  8
0
 10
-12.2909
 20
9.08376
 30
0.0
 11
-13.15
 21
9.05
 31
0.0
  0
LINE
  5
AB
  8
0
 10
-13.15
 20
9.05
 30
0.0
 11
-14.0091
 21
9.08376
 31
0.0
  0
LINE
  5
AC
  8
0
 10
-14.0091
 20
9.08376
 30
0.0
 11
-14.863
 21
9.18481
 31
0.0
  0
LINE
  5
AD
  8
0
 10
-14.863
 20
9.18481
 30
0.0
 11
-15.7062
 21
9.35255
 31
0.0
  0
LINE
  5
AE
  8
0
 10
-15.7062
 20
9.35255
 30
0.0
 11
-16.5337
 21
9.58593
 31
0.0
  0
LINE
  5
AF
  8
0
 10
-16.5337
 20
9.58593
 30
0.0
 11
-17.3404
 21
9.88352
 31
0.0
  0
LINE
  5
B0
  8
0
 10
-17.3404
 20
9.88352
 30
0.0
 11
-18.1212
 21
10.2435
 31
0.0
  0
LINE
  5
B1
  8
0
 10
-18.1212
 20
10.2435
 30
0.0
 11
-18.8714
 21
10.6636
 31
0.0
  0
LINE
  5
B2
  8
0
 10
-18.8714
 20
10.6636
 30
0.0
 11
-19.5862
 21
11.1413
 31
0.0
  0
LINE
  5
B3
  8
0
 10
-19.5862
 20
11.1413
 30
0.0
 11
-20.2615
 21
11.6736
 31
0.0
  0
LINE
  5
B4
  8
0
 10
-20.2615
 20
11.6736
 30
0.0
 11
-20.8928
 21
12.2572
 31
0.0
  0
LINE
  5
B5
  8
0
 10
-20.8928
 20
12.2572
 30
0.0
 11
-21.4764
 21
12.8885
 31
0.0
  0
LINE
  5
B6
  8
0
 10
-21.4764
 20
12.8885
 30
0.0
 11
-22.0
 21
13.5527
 31
0.0
  0
LINE
  5
B8
  8
0
 10
-22.0
 20
-13.5527
 30
0.0
 11
-21.4764
 21
-12.8885
 31
0.0
  0
LINE
  5
B9
  8
0
 10
-21.4764
 20
-12.8885
 30
0.0
 11
-20.8928
 21
-12.2572
 31
0.0
  0
LINE
  5
BA
  8
0
 10
-20.8928
 20
-12.2572
 30
0.0
 11
-20.2615
 21
-11.6736
 31
0.0
  0
LINE
  5
BB
  8
0
 10
-20.2615
 20
-11.6736
 30
0.0
 11
-19.5862
 21
-11.1413
 31
0.0
  0
LINE
  5
BC
  8
0
 10
-19.5862
 20
-11.1413
 30
0.0
 11
-18.8714
 21
-10.6636
 31
0.0
  0
LINE
  5
BD
  8
0
 10
-18.8714
 20
-10.6636
 30
0.0
 11
-18.1212
 21
-10.2435
 31
0.0
  0
LINE
  5
BE
  8
0
 10
-18.1212
 20
-10.2435
 30
0.0
 11
-17.3404
 21
-9.88352
 31
0.0
  0
LINE
  5
BF
  8
0
 10
-17.3404
 20
-9.88352
 30
0.0
 11
-16.5337
 21
-9.58593
 31
0.0
  0
LINE
  5
C0
  8
0
 10
-16.5337
 20
-9.58593
 30
0.0
 11
-15.7062
 21
-9.35255
 31
0.0
  0
LINE
  5
C1
  8
0
 10
-15.7062
 20
-9.35255
 30
0.0
 11
-14.863
 21
-9.18481
 31
0.0
  0
LINE
  5
C2
  8
0
 10
-14.863
 20
-9.18481
 30
0.0
 11
-14.0091
 21
-9.08376
 31
0.0
  0
LINE
  5
C3
  8
0
 10
-14.0091
 20
-9.08376
 30
0.0
 11
-13.15
 21
-9.05
 31
0.0
  0
LINE
  5
C4
  8
0
 10
-13.15
 20
-9.05
 30
0.0
 11
-12.2909
 21
-9.08376
 31
0.0
  0
LINE
  5
C5
  8
0
 10
-12.2909
 20
-9.08376
 30
0.0
 11
-11.437
 21
-9.18481
 31
0.0
  0
LINE
  5
C6
  8
0
 10
-11.437
 20
-9.18481
 30
0.0
 11
-10.5938
 21
-9.35255
 31
0.0
  0
LINE
  5
C7
  8
0
 10
-10.5938
 20
-9.35255
 30
0.0
 11
-9.76626
 21
-9.58593
 31
0.0
  0
LINE
  5
C8
  8
0
 10
-9.76626
 20
-9.58593
 30
0.0
 11
-8.95962
 21
-9.88352
 31
0.0
  0
LINE
  5
C9
  8
0
 10
-8.95962
 20
-9.88352
 30
0.0
 11
-8.1788
 21
-10.2435
 31
0.0
  0
LINE
  5
CA
  8
0
 10
-8.1788
 20
-10.2435
 30
0.0
 11
-7.42864
 21
-10.6636
 31
0.0
  0
LINE
  5
CB
  8
0
 10
-7.42864
 20
-10.6636
 30
0.0
 11
-6.71375
 21
-11.1413
 31
0.0
  0
LINE
  5
CC
  8
0
 10
-6.71375
 20
-11.1413
 30
0.0
 11
-6.03854
 21
-11.6736
 31
0.0
  0
LINE
  5
CD
  8
0
 10
-6.03854
 20
-11.6736
 30
0.0
 11
-5.40718
 21
-12.2572
 31
0.0
  0
LINE
  5
CE
  8
0
 10
-5.40718
 20
-12.2572
 30
0.0
 11
-4.82356
 21
-12.8885
 31
0.0
  0
LINE
  5
CF
  8
0
 10
-4.82356
 20
-12.8885
 30
0.0
 11
-4.29126
 21
-13.5638
 31
0.0
  0
LINE
  5
D0
  8
0
 10
-4.29126
 20
-13.5638
 30
0.0
 11
-3.81359
 21
-14.2786
 31
0.0
  0
LINE
  5
D1
  8
0
 10
-3.81359
 20
-14.2786
 30
0.0
 11
-3.39348
 21
-15.0288
 31
0.0
  0
LINE
  5
D2
  8
0
 10
-3.39348
 20
-15.0288
 30
0.0
 11
-3.03352
 21
-15.8096
 31
0.0
  0
LINE
  5
D3
  8
0
 10
-3.03352
 20
-15.8096
 30
0.0
 11
-2.73593
 21
-16.6163
 31
0.0
  0
LINE
  5
D4
  8
0
 10
-2.73593
 20
-16.6163
 30
0.0
 11
-2.50255
 21
-17.4438
 31
0.0
  0
LINE
  5
D5
  8
0
 10
-2.50255
 20
-17.4438
 30
0.0
 11
-2.33481
 21
-18.287
 31
0.0
  0
LINE
  5
D6
  8
0
 10
-2.33481
 20
-18.287
 30
0.0
 11
-2.23376
 21
-19.1409
 31
0.0
  0
LINE
  5
D7
  8
0
 10
-2.23376
 20
-19.1409
 30
0.0
 11
-2.2
 21
-20.0
 31
0.0
  0
LINE
  5
D8
  8
0
 10
-2.2
 20
-20.0
 30
0.0
 11
-2.23376
 21
-20.8591
 31
0.0
  0
LINE
  5
D9
  8
0
 10
-2.23376
 20
-20.8591
 30
0.0
 11
-2.33481
 21
-21.713
 31
0.0
  0
LINE
  5
DA
  8
0
 10
-2.33481
 20
-21.713
 30
0.0
 11
-2.50255
 21
-22.5562
 31
0.0
  0
LINE
  5
DB
  8
0
 10
-2.50255
 20
-22.5562
 30
0.0
 11
-2.73593
 21
-23.3837
 31
0.0
  0
LINE
  5
DC
  8
0
 10
-2.73593
 20
-23.3837
 30
0.0
 11
-3.03352
 21
-24.1904
 31
0.0
  0
LINE
  5
DD
  8
0
 10
-3.03352
 20
-24.1904
 30
0.0
 11
-3.39348
 21
-24.9712
 31
0.0
  0
LINE
  5
DE
  8
0
 10
-3.39348
 20
-24.9712
 30
0.0
 11
-3.81359
 21
-25.7214
 31
0.0
  0
LINE
  5
DF
  8
0
 10
-3.81359
 20
-25.7214
 30
0.0
 11
-4.29126
 21
-26.4362
 31
0.0
  0
LINE
  5
E0
  8
0
 10
-4.29126
 20
-26.4362
 30
0.0
 11
-4.82356
 21
-27.1115
 31
0.0
  0
LINE
  5
E1
  8
0
 10
-4.82356
 20
-27.1115
 30
0.0
 11
-5.40718
 21
-27.7428
 31
0.0
  0
LINE
  5
E2
  8
0
 10
-5.40718
 20
-27.7428
 30
0.0
 11
-6.03854
 21
-28.3264
 31
0.0
  0
LINE
  5
E3
  8
0
 10
-6.03854
 20
-28.3264
 30
0.0
 11
-6.71375
 21
-28.8587
 31
0.0
  0
LINE
  5
E4
  8
0
 10
-6.71375
 20
-28.8587
 30
0.0
 11
-7.42864
 21
-29.3364
 31
0.0
  0
LINE
  5
E5
  8
0
 10
-7.42864
 20
-29.3364
 30
0.0
 11
-8.1788
 21
-29.7565
 31
0.0
  0
LINE
  5
E6
  8
0
 10
-8.1788
 20
-29.7565
 30
0.0
 11
-8.95962
 21
-30.1165
 31
0.0
  0
LINE
  5
E7
  8
0
 10
-8.95962
 20
-30.1165
 30
0.0
 11
-9.76626
 21
-30.4141
 31
0.0
  0
LINE
  5
E8
  8
0
 10
-9.76626
 20
-30.4141
 30
0.0
 11
-10.5938
 21
-30.6475
 31
0.0
  0
LINE
  5
E9
  8
0
 10
-10.5938
 20
-30.6475
 30
0.0
 11
-11.437
 21
-30.8152
 31
0.0
  0
LINE
  5
EA
  8
0
 10
-11.437
 20
-30.8152
 30
0.0
 11
-12.2909
 21
-30.9162
 31
0.0
  0
LINE
  5
EB
  8
0
 10
-12.2909
 20
-30.9162
 30
0.0
 11
-13.15
 21
-30.95
 31
0.0
  0
LINE
  5
EC
  8
0
 10
-13.15
 20
-30.95
 30
0.0
 11
-14.0091
 21
-30.9162
 31
0.0
  0
LINE
  5
ED
  8
0
 10
-14.0091
 20
-30.9162
 30
0.0
 11
-14.863
 21
-30.8152
 31
0.0
  0
LINE
  5
EE
  8
0
 10
-14.863
 20
-30.8152
 30
0.0
 11
-15.7062
 21
-30.6475
 31
0.0
  0
LINE
  5
EF
  8
0
 10
-15.7062
 20
-30.6475
 30
0.0
 11
-16.5337
 21
-30.4141
 31
0.0
  0
LINE
  5
F0
  8
0
 10
-16.5337
 20
-30.4141
 30
0.0
 11
-17.3404
 21
-30.1165
 31
0.0
  0
LINE
  5
F1
  8
0
 10
-17.3404
 20
-30.1165
 30
0.0
 11
-18.1212
 21
-29.7565
 31
0.0
  0
LINE
  5
F2
  8
0
 10
-18.1212
 20
-29.7565
 30
0.0
 11
-18.8714
 21
-29.3364
 31
0.0
  0
LINE
  5
F3
  8
0
 10
-18.8714
 20
-29.3364
 30
0.0
 11
-19.5862
 21
-28.8587
 31
0.0
  0
LINE
  5
F4
  8
0
 10
-19.5862
 20
-28.8587
 30
0.0
 11
-20.2615
 21
-28.3264
 31
0.0
  0
LINE
  5
F5
  8
0
 10
-20.2615
 20
-28.3264
 30
0.0
 11
-20.8928
 21
-27.7428
 31
0.0
  0
LINE
  5
F6
  8
0
 10
-20.8928
 20
-27.7428
 30
0.0
 11
-21.4764
 21
-27.1115
 31
0.0
  0
LINE
  5
F7
  8
0
 10
-21.4764
 20
-27.1115
 30
0.0
 11
-22.0
 21
-26.4473
 31
0.0
  0
LINE
  5
F8
  8
0
 10
-22.0
 20
-26.4473
 30
0.0
 11
-22.0
 21
-33.5
 31
0.0
  0
LINE
  5
F9
  8
0
 10
-22.0
 20
-33.5
 30
0.0
 11
-11.0
 21
-33.5
 31
0.0
  0
LINE
  5
FA
  8
0
 10
-11.0
 20
-33.5
 30
0.0
 11
-11.0
 21
-48.0
 31
0.0
  0
LINE
  5
FD
  8
0
 10
-44.0
 20
-2.0
 30
0.0
 11
-51.0
 21
-2.0
 31
0.0
  0
LINE
  5
FF
  8
0
 10
11.0
 20
-62.0
 30
0.0
 11
28.0
 21
-62.0
 31
0.0
  0
LINE
  5
100
  8
0
 10
28.0
 20
-54.0
 30
0.0
 11
28.0
 21
-48.0
 31
0.0
  0
POLYLINE
  5
46
  8
0
 66
     1
 10
0.0
 20
0.0
 30
0.0
  0
VERTEX
  5
4E2
  8
0
 10
0.0
 20
0.0
 30
0.0
  0
VERTEX
  5
4E3
  8
0
 10
0.0
 20
0.0
 30
0.0
  0
SEQEND
  5
5EB
  8
0
  0
POLYLINE
  5
4D
  8
0
 66
     1
 10
0.0
 20
0.0
 30
0.0
 70
     1
  0
VERTEX
  5
4E4
  8
0
 10
-15.1177
 20
38.5046
 30
0.0
  0
VERTEX
  5
4E5
  8
0
 10
-15.2347
 20
38.5185
 30
0.0
  0
VERTEX
  5
4E6
  8
0
 10
-15.3502
 20
38.5414
 30
0.0
  0
VERTEX
  5
4E7
  8
0
 10
-15.4635
 20
38.5734
 30
0.0
  0
VERTEX
  5
4E8
  8
0
 10
-15.574
 20
38.6142
 30
0.0
  0
VERTEX
  5
4E9
  8
0
 10
-15.681
 20
38.6635
 30
0.0
  0
VERTEX
  5
4EA
  8
0
 10
-15.7837
 20
38.721
 30
0.0
  0
VERTEX
  5
4EB
  8
0
 10
-15.8817
 20
38.7865
 30
0.0
  0
VERTEX
  5
4EC
  8
0
 10
-15.9742
 20
38.8594
 30
0.0
  0
VERTEX
  5
4ED
  8
0
 10
-16.0607
 20
38.9393
 30
0.0
  0
VERTEX
  5
4EE
  8
0
 10
-16.1406
 20
39.0258
 30
0.0
  0
VERTEX
  5
4EF
  8
0
 10
-16.2135
 20
39.1183
 30
0.0
  0
VERTEX
  5
4F0
  8
0
 10
-16.279
 20
39.2163
 30
0.0
  0
VERTEX
  5
4F1
  8
0
 10
-16.3365
 20
39.319
 30
0.0
  0
VERTEX
  5
4F2
  8
0
 10
-16.3858
 20
39.426
 30
0.0
  0
VERTEX
  5
4F3
  8
0
 10
-16.4266
 20
39.5365
 30
0.0
  0
VERTEX
  5
4F4
  8
0
 10
-16.4586
 20
39.6498
 30
0.0
  0
VERTEX
  5
4F5
  8
0
 10
-16.4815
 20
39.7653
 30
0.0
  0
VERTEX
  5
4F6
  8
0
 10
-16.4954
 20
39.8823
 30
0.0
  0
VERTEX
  5
4F7
  8
0
 10
-16.5
 20
40.0
 30
0.0
  0
VERTEX
  5
4F8
  8
0
 10
-16.4954
 20
40.1177
 30
0.0
  0
VERTEX
  5
4F9
  8
0
 10
-16.4815
 20
40.2347
 30
0.0
  0
VERTEX
  5
4FA
  8
0
 10
-16.4586
 20
40.3502
 30
0.0
  0
VERTEX
  5
4FB
  8
0
 10
-16.4266
 20
40.4635
 30
0.0
  0
VERTEX
  5
4FC
  8
0
 10
-16.3858
 20
40.574
 30
0.0
  0
VERTEX
  5
4FD
  8
0
 10
-16.3365
 20
40.681
 30
0.0
  0
VERTEX
  5
4FE
  8
0
 10
-16.279
 20
40.7837
 30
0.0
  0
VERTEX
  5
4FF
  8
0
 10
-16.2135
 20
40.8817
 30
0.0
  0
VERTEX
  5
500
  8
0
 10
-16.1406
 20
40.9742
 30
0.0
  0
VERTEX
  5
501
  8
0
 10
-16.0607
 20
41.0607
 30
0.0
  0
VERTEX
  5
502
  8
0
 10
-15.9742
 20
41.1406
 30
0.0
  0
VERTEX
  5
503
  8
0
 10
-15.8817
 20
41.2135
 30
0.0
  0
VERTEX
  5
504
  8
0
 10
-15.7837
 20
41.279
 30
0.0
  0
VERTEX
  5
505
  8
0
 10
-15.681
 20
41.3365
 30
0.0
  0
VERTEX
  5
506
  8
0
 10
-15.574
 20
41.3858
 30
0.0
  0
VERTEX
  5
507
  8
0
 10
-15.4635
 20
41.4266
 30
0.0
  0
VERTEX
  5
508
  8
0
 10
-15.3502
 20
41.4586
 30
0.0
  0
VERTEX
  5
509
  8
0
 10
-15.2347
 20
41.4815
 30
0.0
  0
VERTEX
  5
50A
  8
0
 10
-15.1177
 20
41.4954
 30
0.0
  0
VERTEX
  5
50B
  8
0
 10
-15.0
 20
41.5
 30
0.0
  0
VERTEX
  5
50C
  8
0
 10
-14.8823
 20
41.4954
 30
0.0
  0
VERTEX
  5
50D
  8
0
 10
-14.7653
 20
41.4815
 30
0.0
  0
VERTEX
  5
50E
  8
0
 10
-14.6498
 20
41.4586
 30
0.0
  0
VERTEX
  5
50F
  8
0
 10
-14.5365
 20
41.4266
 30
0.0
  0
VERTEX
  5
510
  8
0
 10
-14.426
 20
41.3858
 30
0.0
  0
VERTEX
  5
511
  8
0
 10
-14.319
 20
41.3365
 30
0.0
  0
VERTEX
  5
512
  8
0
 10
-14.2163
 20
41.279
 30
0.0
  0
VERTEX
  5
513
  8
0
 10
-14.1183
 20
41.2135
 30
0.0
  0
VERTEX
  5
514
  8
0
 10
-14.0258
 20
41.1406
 30
0.0
  0
VERTEX
  5
515
  8
0
 10
-13.9393
 20
41.0607
 30
0.0
  0
VERTEX
  5
516
  8
0
 10
-13.8594
 20
40.9742
 30
0.0
  0
VERTEX
  5
517
  8
0
 10
-13.7865
 20
40.8817
 30
0.0
  0
VERTEX
  5
518
  8
0
 10
-13.721
 20
40.7837
 30
0.0
  0
VERTEX
  5
519
  8
0
 10
-13.6635
 20
40.681
 30
0.0
  0
VERTEX
  5
51A
  8
0
 10
-13.6142
 20
40.574
 30
0.0
  0
VERTEX
  5
51B
  8
0
 10
-13.5734
 20
40.4635
 30
0.0
  0
VERTEX
  5
51C
  8
0
 10
-13.5414
 20
40.3502
 30
0.0
  0
VERTEX
  5
51D
  8
0
 10
-13.5185
 20
40.2347
 30
0.0
  0
VERTEX
  5
51E
  8
0
 10
-13.5046
 20
40.1177
 30
0.0
  0
VERTEX
  5
51F
  8
0
 10
-13.5
 20
40.0
 30
0.0
  0
VERTEX
  5
520
  8
0
 10
-13.5046
 20
39.8823
 30
0.0
  0
VERTEX
  5
521
  8
0
 10
-13.5185
 20
39.7653
 30
0.0
  0
VERTEX
  5
522
  8
0
 10
-13.5414
 20
39.6498
 30
0.0
  0
VERTEX
  5
523
  8
0
 10
-13.5734
 20
39.5365
 30
0.0
  0
VERTEX
  5
524
  8
0
 10
-13.6142
 20
39.426
 30
0.0
  0
VERTEX
  5
525
  8
0
 10
-13.6635
 20
39.319
 30
0.0
  0
VERTEX
  5
526
  8
0
 10
-13.721
 20
39.2163
 30
0.0
  0
VERTEX
  5
527
  8
0
 10
-13.7865
 20
39.1183
 30
0.0
  0
VERTEX
  5
528
  8
0
 10
-13.8594
 20
39.0258
 30
0.0
  0
VERTEX
  5
529
  8
0
 10
-13.9393
 20
38.9393
 30
0.0
  0
VERTEX
  5
52A
  8
0
 10
-14.0258
 20
38.8594
 30
0.0
  0
VERTEX
  5
52B
  8
0
 10
-14.1183
 20
38.7865
 30
0.0
  0
VERTEX
  5
52C
  8
0
 10
-14.2163
 20
38.721
 30
0.0
  0
VERTEX
  5
52D
  8
0
 10
-14.319
 20
38.6635
 30
0.0
  0
VERTEX
  5
52E
  8
0
 10
-14.426
 20
38.6142
 30
0.0
  0
VERTEX
  5
52F
  8
0
 10
-14.5365
 20
38.5734
 30
0.0
  0
VERTEX
  5
530
  8
0
 10
-14.6498
 20
38.5414
 30
0.0
  0
VERTEX
  5
531
  8
0
 10
-14.7653
 20
38.5185
 30
0.0
  0
VERTEX
  5
532
  8
0
 10
-14.8823
 20
38.5046
 30
0.0
  0
VERTEX
  5
533
  8
0
 10
-15.0
 20
38.5
 30
0.0
  0
SEQEND
  5
5EC
  8
0
  0
POLYLINE
  5
47
  8
0
 66
     1
 10
0.0
 20
0.0
 30
0.0
  0
VERTEX
  5
534
  8
0
 10
0.0
 20
0.0
 30
0.0
  0
VERTEX
  5
535
  8
0
 10
0.0
 20
0.0
 30
0.0
  0
SEQEND
  5
5ED
  8
0
  0
POLYLINE
  5
4E
  8
0
 66
     1
 10
0.0
 20
0.0
 30
0.0
 70
     1
  0
VERTEX
  5
536
  8
0
 10
-3.0
 20
31.0
 30
0.0
  0
VERTEX
  5
537
  8
0
 10
-3.0
 20
35.0
 30
0.0
  0
VERTEX
  5
538
  8
0
 10
3.0
 20
35.0
 30
0.0
  0
VERTEX
  5
539
  8
0
 10
3.0
 20
31.0
 30
0.0
  0
SEQEND
  5
5EE
  8
0
  0
POLYLINE
  5
48
  8
0
 66
     1
 10
0.0
 20
0.0
 30
0.0
  0
VERTEX
  5
53A
  8
0
 10
0.0
 20
0.0
 30
0.0
  0
VERTEX
  5
53B
  8
0
 10
0.0
 20
0.0
 30
0.0
  0
SEQEND
  5
5EF
  8
0
  0
POLYLINE
  5
4F
  8
0
 66
     1
 10
0.0
 20
0.0
 30
0.0
 70
     1
  0
VERTEX
  5
53C
  8
0
 10
4.5
 20
2.075
 30
0.0
  0
VERTEX
  5
53D
  8
0
 10
4.5
 20
7.925
 30
0.0
  0
VERTEX
  5
53E
  8
0
 10
7.5
 20
7.925
 30
0.0
  0
VERTEX
  5
53F
  8
0
 10
7.5
 20
2.075
 30
0.0
  0
SEQEND
  5
5F0
  8
0
  0
POLYLINE
  5
49
  8
0
 66
     1
 10
0.0
 20
0.0
 30
0.0
  0
VERTEX
  5
540
  8
0
 10
0.0
 20
0.0
 30
0.0
  0
VERTEX
  5
541
  8
0
 10
0.0
 20
0.0
 30
0.0
  0
SEQEND
  5
5F1
  8
0
  0
POLYLINE
  5
50
  8
0
 66
     1
 10
0.0
 20
0.0
 30
0.0
 70
     1
  0
VERTEX
  5
542
  8
0
 10
4.5
 20
-7.925
 30
0.0
  0
VERTEX
  5
543
  8
0
 10
4.5
 20
-2.075
 30
0.0
  0
VERTEX
  5
544
  8
0
 10
7.5
 20
-2.075
 30
0.0
  0
VERTEX
  5
545
  8
0
 10
7.5
 20
-7.925
 30
0.0
  0
SEQEND
  5
5F2
  8
0
  0
POLYLINE
  5
4A
  8
0
 66
     1
 10
0.0
 20
0.0
 30
0.0
  0
VERTEX
  5
546
  8
0
 10
0.0
 20
0.0
 30
0.0
  0
VERTEX
  5
547
  8
0
 10
0.0
 20
0.0
 30
0.0
  0
SEQEND
  5
5F3
  8
0
  0
POLYLINE
  5
51
  8
0
 66
     1
 10
0.0
 20
0.0
 30
0.0
 70
     1
  0
VERTEX
  5
548
  8
0
 10
-47.1177
 20
-36.4954
 30
0.0
  0
VERTEX
  5
549
  8
0
 10
-47.2347
 20
-36.4815
 30
0.0
  0
VERTEX
  5
54A
  8
0
 10
-47.3502
 20
-36.4586
 30
0.0
  0
VERTEX
  5
54B
  8
0
 10
-47.4635
 20
-36.4266
 30
0.0
  0
VERTEX
  5
54C
  8
0
 10
-47.574
 20
-36.3858
 30
0.0
  0
VERTEX
  5
54D
  8
0
 10
-47.681
 20
-36.3365
 30
0.0
  0
VERTEX
  5
54E
  8
0
 10
-47.7837
 20
-36.279
 30
0.0
  0
VERTEX
  5
54F
  8
0
 10
-47.8817
 20
-36.2135
 30
0.0
  0
VERTEX
  5
550
  8
0
 10
-47.9742
 20
-36.1406
 30
0.0
  0
VERTEX
  5
551
  8
0
 10
-48.0607
 20
-36.0607
 30
0.0
  0
VERTEX
  5
552
  8
0
 10
-48.1406
 20
-35.9742
 30
0.0
  0
VERTEX
  5
553
  8
0
 10
-48.2135
 20
-35.8817
 30
0.0
  0
VERTEX
  5
554
  8
0
 10
-48.279
 20
-35.7837
 30
0.0
  0
VERTEX
  5
555
  8
0
 10
-48.3365
 20
-35.681
 30
0.0
  0
VERTEX
  5
556
  8
0
 10
-48.3858
 20
-35.574
 30
0.0
  0
VERTEX
  5
557
  8
0
 10
-48.4266
 20
-35.4635
 30
0.0
  0
VERTEX
  5
558
  8
0
 10
-48.4586
 20
-35.3502
 30
0.0
  0
VERTEX
  5
559
  8
0
 10
-48.4815
 20
-35.2347
 30
0.0
  0
VERTEX
  5
55A
  8
0
 10
-48.4954
 20
-35.1177
 30
0.0
  0
VERTEX
  5
55B
  8
0
 10
-48.5
 20
-35.0
 30
0.0
  0
VERTEX
  5
55C
  8
0
 10
-48.4954
 20
-34.8823
 30
0.0
  0
VERTEX
  5
55D
  8
0
 10
-48.4815
 20
-34.7653
 30
0.0
  0
VERTEX
  5
55E
  8
0
 10
-48.4586
 20
-34.6498
 30
0.0
  0
VERTEX
  5
55F
  8
0
 10
-48.4266
 20
-34.5365
 30
0.0
  0
VERTEX
  5
560
  8
0
 10
-48.3858
 20
-34.426
 30
0.0
  0
VERTEX
  5
561
  8
0
 10
-48.3365
 20
-34.319
 30
0.0
  0
VERTEX
  5
562
  8
0
 10
-48.279
 20
-34.2163
 30
0.0
  0
VERTEX
  5
563
  8
0
 10
-48.2135
 20
-34.1183
 30
0.0
  0
VERTEX
  5
564
  8
0
 10
-48.1406
 20
-34.0258
 30
0.0
  0
VERTEX
  5
565
  8
0
 10
-48.0607
 20
-33.9393
 30
0.0
  0
VERTEX
  5
566
  8
0
 10
-47.9742
 20
-33.8594
 30
0.0
  0
VERTEX
  5
567
  8
0
 10
-47.8817
 20
-33.7865
 30
0.0
  0
VERTEX
  5
568
  8
0
 10
-47.7837
 20
-33.721
 30
0.0
  0
VERTEX
  5
569
  8
0
 10
-47.681
 20
-33.6635
 30
0.0
  0
VERTEX
  5
56A
  8
0
 10
-47.574
 20
-33.6142
 30
0.0
  0
VERTEX
  5
56B
  8
0
 10
-47.4635
 20
-33.5734
 30
0.0
  0
VERTEX
  5
56C
  8
0
 10
-47.3502
 20
-33.5414
 30
0.0
  0
VERTEX
  5
56D
  8
0
 10
-47.2347
 20
-33.5185
 30
0.0
  0
VERTEX
  5
56E
  8
0
 10
-47.1177
 20
-33.5046
 30
0.0
  0
VERTEX
  5
56F
  8
0
 10
-47.0
 20
-33.5
 30
0.0
  0
VERTEX
  5
570
  8
0
 10
-46.8823
 20
-33.5046
 30
0.0
  0
VERTEX
  5
571
  8
0
 10
-46.7653
 20
-33.5185
 30
0.0
  0
VERTEX
  5
572
  8
0
 10
-46.6498
 20
-33.5414
 30
0.0
  0
VERTEX
  5
573
  8
0
 10
-46.5365
 20
-33.5734
 30
0.0
  0
VERTEX
  5
574
  8
0
 10
-46.426
 20
-33.6142
 30
0.0
  0
VERTEX
  5
575
  8
0
 10
-46.319
 20
-33.6635
 30
0.0
  0
VERTEX
  5
576
  8
0
 10
-46.2163
 20
-33.721
 30
0.0
  0
VERTEX
  5
577
  8
0
 10
-46.1183
 20
-33.7865
 30
0.0
  0
VERTEX
  5
578
  8
0
 10
-46.0258
 20
-33.8594
 30
0.0
  0
VERTEX
  5
579
  8
0
 10
-45.9393
 20
-33.9393
 30
0.0
  0
VERTEX
  5
57A
  8
0
 10
-45.8594
 20
-34.0258
 30
0.0
  0
VERTEX
  5
57B
  8
0
 10
-45.7865
 20
-34.1183
 30
0.0
  0
VERTEX
  5
57C
  8
0
 10
-45.721
 20
-34.2163
 30
0.0
  0
VERTEX
  5
57D
  8
0
 10
-45.6635
 20
-34.319
 30
0.0
  0
VERTEX
  5
57E
  8
0
 10
-45.6142
 20
-34.426
 30
0.0
  0
VERTEX
  5
57F
  8
0
 10
-45.5734
 20
-34.5365
 30
0.0
  0
VERTEX
  5
580
  8
0
 10
-45.5414
 20
-34.6498
 30
0.0
  0
VERTEX
  5
581
  8
0
 10
-45.5185
 20
-34.7653
 30
0.0
  0
VERTEX
  5
582
  8
0
 10
-45.5046
 20
-34.8823
 30
0.0
  0
VERTEX
  5
583
  8
0
 10
-45.5
 20
-35.0
 30
0.0
  0
VERTEX
  5
584
  8
0
 10
-45.5046
 20
-35.1177
 30
0.0
  0
VERTEX
  5
585
  8
0
 10
-45.5185
 20
-35.2347
 30
0.0
  0
VERTEX
  5
586
  8
0
 10
-45.5414
 20
-35.3502
 30
0.0
  0
VERTEX
  5
587
  8
0
 10
-45.5734
 20
-35.4635
 30
0.0
  0
VERTEX
  5
588
  8
0
 10
-45.6142
 20
-35.574
 30
0.0
  0
VERTEX
  5
589
  8
0
 10
-45.6635
 20
-35.681
 30
0.0
  0
VERTEX
  5
58A
  8
0
 10
-45.721
 20
-35.7837
 30
0.0
  0
VERTEX
  5
58B
  8
0
 10
-45.7865
 20
-35.8817
 30
0.0
  0
VERTEX
  5
58C
  8
0
 10
-45.8594
 20
-35.9742
 30
0.0
  0
VERTEX
  5
58D
  8
0
 10
-45.9393
 20
-36.0607
 30
0.0
  0
VERTEX
  5
58E
  8
0
 10
-46.0258
 20
-36.1406
 30
0.0
  0
VERTEX
  5
58F
  8
0
 10
-46.1183
 20
-36.2135
 30
0.0
  0
VERTEX
  5
590
  8
0
 10
-46.2163
 20
-36.279
 30
0.0
  0
VERTEX
  5
591
  8
0
 10
-46.319
 20
-36.3365
 30
0.0
  0
VERTEX
  5
592
  8
0
 10
-46.426
 20
-36.3858
 30
0.0
  0
VERTEX
  5
593
  8
0
 10
-46.5365
 20
-36.4266
 30
0.0
  0
VERTEX
  5
594
  8
0
 10
-46.6498
 20
-36.4586
 30
0.0
  0
VERTEX
  5
595
  8
0
 10
-46.7653
 20
-36.4815
 30
0.0
  0
VERTEX
  5
596
  8
0
 10
-46.8823
 20
-36.4954
 30
0.0
  0
VERTEX
  5
597
  8
0
 10
-47.0
 20
-36.5
 30
0.0
  0
SEQEND
  5
5F4
  8
0
  0
POLYLINE
  5
4B
  8
0
 66
     1
 10
0.0
 20
0.0
 30
0.0
  0
VERTEX
  5
598
  8
0
 10
0.0
 20
0.0
 30
0.0
  0
VERTEX
  5
599
  8
0
 10
0.0
 20
0.0
 30
0.0
  0
SEQEND
  5
5F5
  8
0
  0
POLYLINE
  5
52
  8
0
 66
     1
 10
0.0
 20
0.0
 30
0.0
 70
     1
  0
VERTEX
  5
59A
  8
0
 10
-7.11769
 20
-41.4954
 30
0.0
  0
VERTEX
  5
59B
  8
0
 10
-7.23465
 20
-41.4815
 30
0.0
  0
VERTEX
  5
59C
  8
0
 10
-7.35017
 20
-41.4586
 30
0.0
  0
VERTEX
  5
59D
  8
0
 10
-7.46352
 20
-41.4266
 30
0.0
  0
VERTEX
  5
59E
  8
0
 10
-7.57402
 20
-41.3858
 30
0.0
  0
VERTEX
  5
59F
  8
0
 10
-7.68099
 20
-41.3365
 30
0.0
  0
VERTEX
  5
5A0
  8
0
 10
-7.78375
 20
-41.279
 30
0.0
  0
VERTEX
  5
5A1
  8
0
 10
-7.88168
 20
-41.2135
 30
0.0
  0
VERTEX
  5
5A2
  8
0
 10
-7.97417
 20
-41.1406
 30
0.0
  0
VERTEX
  5
5A3
  8
0
 10
-8.06066
 20
-41.0607
 30
0.0
  0
VERTEX
  5
5A4
  8
0
 10
-8.14061
 20
-40.9742
 30
0.0
  0
VERTEX
  5
5A5
  8
0
 10
-8.21352
 20
-40.8817
 30
0.0
  0
VERTEX
  5
5A6
  8
0
 10
-8.27896
 20
-40.7837
 30
0.0
  0
VERTEX
  5
5A7
  8
0
 10
-8.33651
 20
-40.681
 30
0.0
  0
VERTEX
  5
5A8
  8
0
 10
-8.38582
 20
-40.574
 30
0.0
  0
VERTEX
  5
5A9
  8
0
 10
-8.42658
 20
-40.4635
 30
0.0
  0
VERTEX
  5
5AA
  8
0
 10
-8.45855
 20
-40.3502
 30
0.0
  0
VERTEX
  5
5AB
  8
0
 10
-8.48153
 20
-40.2347
 30
0.0
  0
VERTEX
  5
5AC
  8
0
 10
-8.49538
 20
-40.1177
 30
0.0
  0
VERTEX
  5
5AD
  8
0
 10
-8.5
 20
-40.0
 30
0.0
  0
VERTEX
  5
5AE
  8
0
 10
-8.49538
 20
-39.8823
 30
0.0
  0
VERTEX
  5
5AF
  8
0
 10
-8.48153
 20
-39.7653
 30
0.0
  0
VERTEX
  5
5B0
  8
0
 10
-8.45855
 20
-39.6498
 30
0.0
  0
VERTEX
  5
5B1
  8
0
 10
-8.42658
 20
-39.5365
 30
0.0
  0
VERTEX
  5
5B2
  8
0
 10
-8.38582
 20
-39.426
 30
0.0
  0
VERTEX
  5
5B3
  8
0
 10
-8.33651
 20
-39.319
 30
0.0
  0
VERTEX
  5
5B4
  8
0
 10
-8.27896
 20
-39.2163
 30
0.0
  0
VERTEX
  5
5B5
  8
0
 10
-8.21352
 20
-39.1183
 30
0.0
  0
VERTEX
  5
5B6
  8
0
 10
-8.14061
 20
-39.0258
 30
0.0
  0
VERTEX
  5
5B7
  8
0
 10
-8.06066
 20
-38.9393
 30
0.0
  0
VERTEX
  5
5B8
  8
0
 10
-7.97417
 20
-38.8594
 30
0.0
  0
VERTEX
  5
5B9
  8
0
 10
-7.88168
 20
-38.7865
 30
0.0
  0
VERTEX
  5
5BA
  8
0
 10
-7.78375
 20
-38.721
 30
0.0
  0
VERTEX
  5
5BB
  8
0
 10
-7.68099
 20
-38.6635
 30
0.0
  0
VERTEX
  5
5BC
  8
0
 10
-7.57402
 20
-38.6142
 30
0.0
  0
VERTEX
  5
5BD
  8
0
 10
-7.46352
 20
-38.5734
 30
0.0
  0
VERTEX
  5
5BE
  8
0
 10
-7.35017
 20
-38.5414
 30
0.0
  0
VERTEX
  5
5BF
  8
0
 10
-7.23465
 20
-38.5185
 30
0.0
  0
VERTEX
  5
5C0
  8
0
 10
-7.11769
 20
-38.5046
 30
0.0
  0
VERTEX
  5
5C1
  8
0
 10
-7.0
 20
-38.5
 30
0.0
  0
VERTEX
  5
5C2
  8
0
 10
-6.88231
 20
-38.5046
 30
0.0
  0
VERTEX
  5
5C3
  8
0
 10
-6.76535
 20
-38.5185
 30
0.0
  0
VERTEX
  5
5C4
  8
0
 10
-6.64983
 20
-38.5414
 30
0.0
  0
VERTEX
  5
5C5
  8
0
 10
-6.53648
 20
-38.5734
 30
0.0
  0
VERTEX
  5
5C6
  8
0
 10
-6.42598
 20
-38.6142
 30
0.0
  0
VERTEX
  5
5C7
  8
0
 10
-6.31901
 20
-38.6635
 30
0.0
  0
VERTEX
  5
5C8
  8
0
 10
-6.21625
 20
-38.721
 30
0.0
  0
VERTEX
  5
5C9
  8
0
 10
-6.11832
 20
-38.7865
 30
0.0
  0
VERTEX
  5
5CA
  8
0
 10
-6.02583
 20
-38.8594
 30
0.0
  0
VERTEX
  5
5CB
  8
0
 10
-5.93934
 20
-38.9393
 30
0.0
  0
VERTEX
  5
5CC
  8
0
 10
-5.85939
 20
-39.0258
 30
0.0
  0
VERTEX
  5
5CD
  8
0
 10
-5.78648
 20
-39.1183
 30
0.0
  0
VERTEX
  5
5CE
  8
0
 10
-5.72104
 20
-39.2163
 30
0.0
  0
VERTEX
  5
5CF
  8
0
 10
-5.66349
 20
-39.319
 30
0.0
  0
VERTEX
  5
5D0
  8
0
 10
-5.61418
 20
-39.426
 30
0.0
  0
VERTEX
  5
5D1
  8
0
 10
-5.57342
 20
-39.5365
 30
0.0
  0
VERTEX
  5
5D2
  8
0
 10
-5.54145
 20
-39.6498
 30
0.0
  0
VERTEX
  5
5D3
  8
0
 10
-5.51847
 20
-39.7653
 30
0.0
  0
VERTEX
  5
5D4
  8
0
 10
-5.50462
 20
-39.8823
 30
0.0
  0
VERTEX
  5
5D5
  8
0
 10
-5.5
 20
-40.0
 30
0.0
  0
VERTEX
  5
5D6
  8
0
 10
-5.50462
 20
-40.1177
 30
0.0
  0
VERTEX
  5
5D7
  8
0
 10
-5.51847
 20
-40.2347
 30
0.0
  0
VERTEX
  5
5D8
  8
0
 10
-5.54145
 20
-40.3502
 30
0.0
  0
VERTEX
  5
5D9
  8
0
 10
-5.57342
 20
-40.4635
 30
0.0
  0
VERTEX
  5
5DA
  8
0
 10
-5.61418
 20
-40.574
 30
0.0
  0
VERTEX
  5
5DB
  8
0
 10
-5.66349
 20
-40.681
 30
0.0
  0
VERTEX
  5
5DC
  8
0
 10
-5.72104
 20
-40.7837
 30
0.0
  0
VERTEX
  5
5DD
  8
0
 10
-5.78648
 20
-40.8817
 30
0.0
  0
VERTEX
  5
5DE
  8
0
 10
-5.85939
 20
-40.9742
 30
0.0
  0
VERTEX
  5
5DF
  8
0
 10
-5.93934
 20
-41.0607
 30
0.0
  0
VERTEX
  5
5E0
  8
0
 10
-6.02583
 20
-41.1406
 30
0.0
  0
VERTEX
  5
5E1
  8
0
 10
-6.11832
 20
-41.2135
 30
0.0
  0
VERTEX
  5
5E2
  8
0
 10
-6.21625
 20
-41.279
 30
0.0
  0
VERTEX
  5
5E3
  8
0
 10
-6.31901
 20
-41.3365
 30
0.0
  0
VERTEX
  5
5E4
  8
0
 10
-6.42598
 20
-41.3858
 30
0.0
  0
VERTEX
  5
5E5
  8
0
 10
-6.53648
 20
-41.4266
 30
0.0
  0
VERTEX
  5
5E6
  8
0
 10
-6.64983
 20
-41.4586
 30
0.0
  0
VERTEX
  5
5E7
  8
0
 10
-6.76535
 20
-41.4815
 30
0.0
  0
VERTEX
  5
5E8
  8
0
 10
-6.88231
 20
-41.4954
 30
0.0
  0
VERTEX
  5
5E9
  8
0
 10
-7.0
 20
-41.5
 30
0.0
  0
SEQEND
  5
5F6
  8
0
  0
LINE
  5
101
  8
0
 10
27.0
 20
9.31564
 30
0.0
 11
27.0
 21
10.6844
 31
0.0
  0
LINE
  5
102
  8
0
 10
27.0
 20
-10.6844
 30
0.0
 11
27.0
 21
-9.31564
 31
0.0
  0
LINE
  5
103
  8
0
 10
-49.0
 20
46.0
 30
0.0
 11
-22.57212362825788
 21
46.0
 31
0.0
  0
LINE
  5
104
  8
0
 10
-22.57212362825788
 20
46.0
 30
0.0
 11
-22.57212362825788
 21
43.62355257103185
 31
0.0
  0
LINE
  5
106
  8
0
 10
-49.0
 20
43.62355257103185
 30
0.0
 11
-49.0
 21
46.0
 31
0.0
  0
LINE
  5
108
  8
0
 10
8.0
 20
46.0
 30
0.0
 11
8.0
 21
42.0
 31
0.0
  0
LINE
  5
10A
  8
0
 10
-21.0
 20
42.0
 30
0.0
 11
-21.0
 21
46.0
 31
0.0
  0
LINE
  5
10C
  8
0
 10
-17.0
 20
41.0
 30
0.0
 11
-17.0
 21
31.0
 31
0.0
  0
LINE
  5
10D
  8
0
 10
-17.0
 20
31.0
 30
0.0
 11
-21.0
 21
31.0
 31
0.0
  0
LINE
  5
10E
  8
0
 10
-21.0
 20
31.0
 30
0.0
 11
-21.0
 21
41.0
 31
0.0
  0
LINE
  5
110
  8
0
 10
-3.817836934156375
 20
38.0
 30
0.0
 11
-3.817836934156375
 21
31.6342050058741
 31
0.0
  0
LINE
  5
111
  8
0
 10
-3.817836934156375
 20
31.6342050058741
 30
0.0
 11
-16.0
 21
31.6342050058741
 31
0.0
  0
LINE
  5
112
  8
0
 10
-16.0
 20
31.6342050058741
 30
0.0
 11
-16.0
 21
38.0
 31
0.0
  0
LINE
  5
114
  8
0
 10
8.0
 20
41.0
 30
0.0
 11
8.0
 21
39.0
 31
0.0
  0
LINE
  5
116
  8
0
 10
-13.0
 20
39.0
 30
0.0
 11
-13.0
 21
41.0
 31
0.0
  0
LINE
  5
118
  8
0
 10
8.004061642661178
 20
38.0
 30
0.0
 11
8.004061642661178
 21
35.55251133303459
 31
0.0
  0
LINE
  5
119
  8
0
 10
8.004061642661178
 20
35.55251133303459
 30
0.0
 11
-3.0
 21
35.55251133303459
 31
0.0
  0
LINE
  5
11A
  8
0
 10
-3.0
 20
35.55251133303459
 30
0.0
 11
-3.0
 21
38.0
 31
0.0
  0
LINE
  5
11B
  8
0
 10
4.0
 20
35.0
 30
0.0
 11
8.0
 21
35.0
 31
0.0
  0
LINE
  5
11D
  8
0
 10
8.0
 20
9.0
 30
0.0
 11
4.0
 21
9.0
 31
0.0
  0
LINE
  5
11E
  8
0
 10
4.0
 20
9.0
 30
0.0
 11
4.0
 21
35.0
 31
0.0
  0
LINE
  5
11F
  8
0
 10
-1.0
 20
30.0
 30
0.0
 11
3.536373285322384
 21
30.0
 31
0.0
  0
LINE
  5
121
  8
0
 10
3.536373285322384
 20
-60.01701755928363
 30
0.0
 11
-1.0
 21
-60.01701755928363
 31
0.0
  0
LINE
  5
122
  8
0
 10
-1.0
 20
-60.01701755928363
 30
0.0
 11
-1.0
 21
30.0
 31
0.0
  0
LINE
  5
123
  8
0
 10
9.584373285322357
 20
13.27898244071636
 30
0.0
 11
25.85637328532238
 21
13.27898244071636
 31
0.0
  0
LINE
  5
125
  8
0
 10
25.85637328532238
 20
1.470982440716355
 30
0.0
 11
9.584373285322357
 21
1.470982440716355
 31
0.0
  0
LINE
  5
126
  8
0
 10
9.584373285322357
 20
1.470982440716355
 30
0.0
 11
9.584373285322357
 21
13.27898244071636
 31
0.0
  0
LINE
  5
12A
  8
0
 10
10.0
 20
0.0
 30
0.0
 11
26.0
 21
0.0
 31
0.0
  0
LINE
  5
12C
  8
0
 10
26.0
 20
-13.0
 30
0.0
 11
10.0
 21
-13.0
 31
0.0
  0
LINE
  5
12D
  8
0
 10
10.0
 20
-13.0
 30
0.0
 11
10.0
 21
0.0
 31
0.0
  0
LINE
  5
12E
  8
0
 10
-20.0
 20
8.0
 30
0.0
 11
-2.0
 21
8.0
 31
0.0
  0
LINE
  5
12F
  8
0
 10
-2.0
 20
8.0
 30
0.0
 11
-2.0
 21
-8.0
 31
0.0
  0
LINE
  5
130
  8
0
 10
-2.0
 20
-8.0
 30
0.0
 11
-20.0
 21
-8.0
 31
0.0
  0
LINE
  5
132
  8
0
 10
5.0
 20
-10.0
 30
0.0
 11
8.0
 21
-10.0
 31
0.0
  0
LINE
  5
134
  8
0
 10
8.0
 20
-61.0
 30
0.0
 11
5.0
 21
-61.0
 31
0.0
  0
LINE
  5
137
  8
0
 10
27.0
 20
-49.0
 30
0.0
 11
27.0
 21
-54.0
 31
0.0
  0
LINE
  5
138
  8
0
 10
27.0
 20
-61.0
 30
0.0
 11
11.0
 21
-61.0
 31
0.0
  0
LINE
  5
139
  8
0
 10
9.0
 20
-61.0
 30
0.0
 11
9.0
 21
-49.0
 31
0.0
  0
LINE
  5
13B
  8
0
 10
-2.0
 20
-49.0
 30
0.0
 11
-2.0
 21
-61.0
 31
0.0
  0
LINE
  5
13D
  8
0
 10
-44.0
 20
-61.0
 30
0.0
 11
-44.0
 21
-49.0
 31
0.0
  0
LINE
  5
13E
  8
0
 10
-9.0
 20
-32.0
 30
0.0
 11
-2.0
 21
-32.0
 31
0.0
  0
LINE
  5
13F
  8
0
 10
-2.0
 20
-32.0
 30
0.0
 11
-2.0
 21
-36.0
 31
0.0
  0
LINE
  5
140
  8
0
 10
-2.0
 20
-36.0
 30
0.0
 11
-9.0
 21
-36.0
 31
0.0
  0
LINE
  5
141
  8
0
 10
-9.0
 20
-36.0
 30
0.0
 11
-9.0
 21
-32.0
 31
0.0
  0
LINE
  5
142
  8
0
 10
-9.0
 20
-43.0
 30
0.0
 11
-2.0
 21
-43.0
 31
0.0
  0
LINE
  5
143
  8
0
 10
-2.0
 20
-43.0
 30
0.0
 11
-2.0
 21
-47.0
 31
0.0
  0
LINE
  5
144
  8
0
 10
-2.0
 20
-47.0
 30
0.0
 11
-9.0
 21
-47.0
 31
0.0
  0
LINE
  5
145
  8
0
 10
-9.0
 20
-47.0
 30
0.0
 11
-9.0
 21
-43.0
 31
0.0
  0
LINE
  5
146
  8
0
 10
-50.0
 20
-37.0
 30
0.0
 11
-45.0
 21
-37.0
 31
0.0
  0
LINE
  5
147
  8
0
 10
-45.0
 20
-37.0
 30
0.0
 11
-45.0
 21
-61.0
 31
0.0
  0
LINE
  5
148
  8
0
 10
-45.0
 20
-61.0
 30
0.0
 11
-50.0
 21
-61.0
 31
0.0
  0
LINE
  5
14A
  8
0
 10
-50.0
 20
-3.0
 30
0.0
 11
-45.0
 21
-3.0
 31
0.0
  0
LINE
  5
14C
  8
0
 10
-45.0
 20
-32.0
 30
0.0
 11
-50.0
 21
-32.0
 31
0.0
  0
LINE
  5
14E
  8
0
 10
27.0
 20
-54.0
 30
0.0
 11
28.0
 21
-54.0
 31
0.0
  0
LINE
  5
14F
  8
0
 10
27.0
 20
-55.0
 30
0.0
 11
28.0
 21
-55.0
 31
0.0
  0
LINE
  5
150
  8
0
 10
11.0
 20
-48.0
 30
0.0
 11
11.0
 21
-49.0
 31
0.0
  0
LINE
  5
151
  8
0
 10
12.0
 20
-48.0
 30
0.0
 11
12.0
 21
-49.0
 31
0.0
  0
LINE
  5
152
  8
0
 10
10.0
 20
-61.0
 30
0.0
 11
10.0
 21
-62.0
 31
0.0
  0
LINE
  5
153
  8
0
 10
11.0
 20
-61.0
 30
0.0
 11
11.0
 21
-62.0
 31
0.0
  0
LINE
  5
154
  8
0
 10
-37.0
 20
-48.0
 30
0.0
 11
-37.0
 21
-49.0
 31
0.0
  0
LINE
  5
155
  8
0
 10
-36.0
 20
-48.0
 30
0.0
 11
-36.0
 21
-49.0
 31
0.0
  0
LINE
  5
156
  8
0
 10
-37.0
 20
-61.0
 30
0.0
 11
-37.0
 21
-62.0
 31
0.0
  0
LINE
  5
157
  8
0
 10
-36.0
 20
-61.0
 30
0.0
 11
-36.0
 21
-62.0
 31
0.0
  0
LINE
  5
158
  8
0
 10
-20.0
 20
-48.0
 30
0.0
 11
-20.0
 21
-49.0
 31
0.0
  0
LINE
  5
159
  8
0
 10
-19.0
 20
-48.0
 30
0.0
 11
-19.0
 21
-49.0
 31
0.0
  0
LINE
  5
15A
  8
0
 10
-20.0
 20
-61.0
 30
0.0
 11
-20.0
 21
-62.0
 31
0.0
  0
LINE
  5
15B
  8
0
 10
-19.0
 20
-61.0
 30
0.0
 11
-19.0
 21
-62.0
 31
0.0
  0
LINE
  5
15C
  8
0
 10
-44.9742986265432
 20
-11.54772031305599
 30
0.0
 11
-44.0
 21
-11.547720313056
 31
0.0
  0
LINE
  5
15D
  8
0
 10
-45.0
 20
-12.0
 30
0.0
 11
-44.0
 21
-12.0
 31
0.0
  0
LINE
  5
15E
  8
0
 10
-50.0
 20
-16.0
 30
0.0
 11
-51.0
 21
-16.0
 31
0.0
  0
LINE
  5
15F
  8
0
 10
-50.0
 20
-17.0
 30
0.0
 11
-51.0
 21
-17.0
 31
0.0
  0
LINE
  5
160
  8
0
 10
-50.0
 20
-43.0
 30
0.0
 11
-51.0
 21
-43.0
 31
0.0
  0
LINE
  5
161
  8
0
 10
-50.0
 20
-44.0
 30
0.0
 11
-51.0
 21
-44.0
 31
0.0
  0
LINE
  5
164
  8
0
 10
9.0
 20
-25.0
 30
0.0
 11
8.0
 21
-25.0
 31
0.0
  0
LINE
  5
165
  8
0
 10
9.0
 20
-26.0
 30
0.0
 11
8.0
 21
-26.0
 31
0.0
  0
LINE
  5
166
  8
0
 10
5.0
 20
-26.0
 30
0.0
 11
3.536373285322384
 21
-26.0
 31
0.0
  0
LINE
  5
167
  8
0
 10
5.0
 20
-25.0
 30
0.0
 11
3.536373285322384
 21
-25.00000000000001
 31
0.0
  0
LINE
  5
168
  8
0
 10
27.0
 20
-9.31564
 30
0.0
 11
26.0
 21
-9.31564
 31
0.0
  0
LINE
  5
169
  8
0
 10
26.0
 20
-6.5
 30
0.0
 11
27.0
 21
-6.5
 31
0.0
  0
LINE
  5
16A
  8
0
 10
25.85637328532238
 20
7.374982440716359
 30
0.0
 11
27.0
 21
7.37498244071636
 31
0.0
  0
LINE
  5
16B
  8
0
 10
26.0
 20
6.0
 30
0.0
 11
27.0
 21
6.0
 31
0.0
  0
LINE
  5
16C
  8
0
 10
-22.0
 20
1.0
 30
0.0
 11
-20.0
 21
1.0
 31
0.0
  0
LINE
  5
16D
  8
0
 10
-22.0
 20
0.0
 30
0.0
 11
-20.0
 21
0.0
 31
0.0
  0
LINE
  5
16E
  8
0
 10
27.0
 20
-55.0
 30
0.0
 11
27.0
 21
-61.0
 31
0.0
  0
LINE
  5
16F
  8
0
 10
28.0
 20
-55.0
 30
0.0
 11
28.0
 21
-62.0
 31
0.0
  0
LINE
  5
170
  8
0
 10
10.0
 20
-62.0
 30
0.0
 11
-19.0
 21
-62.0
 31
0.0
  0
LINE
  5
171
  8
0
 10
-20.0
 20
-62.0
 30
0.0
 11
-36.0
 21
-62.0
 31
0.0
  0
LINE
  5
172
  8
0
 10
10.0
 20
-61.0
 30
0.0
 11
9.0
 21
-61.0
 31
0.0
  0
LINE
  5
173
  8
0
 10
12.0
 20
-49.0
 30
0.0
 11
27.0
 21
-49.0
 31
0.0
  0
LINE
  5
174
  8
0
 10
28.0
 20
-48.0
 30
0.0
 11
12.0
 21
-48.0
 31
0.0
  0
LINE
  5
175
  8
0
 10
11.0
 20
-48.0
 30
0.0
 11
9.0
 21
-48.0
 31
0.0
  0
LINE
  5
176
  8
0
 10
9.0
 20
-49.0
 30
0.0
 11
11.0
 21
-49.0
 31
0.0
  0
LINE
  5
177
  8
0
 10
-37.0
 20
-62.0
 30
0.0
 11
-51.0
 21
-62.0
 31
0.0
  0
LINE
  5
178
  8
0
 10
-44.0
 20
-61.0
 30
0.0
 11
-37.0
 21
-61.0
 31
0.0
  0
LINE
  5
179
  8
0
 10
-36.0
 20
-61.0
 30
0.0
 11
-20.0
 21
-61.0
 31
0.0
  0
LINE
  5
17A
  8
0
 10
-19.0
 20
-61.0
 30
0.0
 11
-2.0
 21
-61.0
 31
0.0
  0
LINE
  5
17B
  8
0
 10
-2.0
 20
-49.0
 30
0.0
 11
-19.0
 21
-49.0
 31
0.0
  0
LINE
  5
17C
  8
0
 10
-20.0
 20
-49.0
 30
0.0
 11
-36.0
 21
-49.0
 31
0.0
  0
LINE
  5
17D
  8
0
 10
-37.0
 20
-49.0
 30
0.0
 11
-44.0
 21
-49.0
 31
0.0
  0
LINE
  5
17E
  8
0
 10
-44.0
 20
-48.0
 30
0.0
 11
-37.0
 21
-48.0
 31
0.0
  0
LINE
  5
17F
  8
0
 10
-36.0
 20
-48.0
 30
0.0
 11
-20.0
 21
-48.0
 31
0.0
  0
LINE
  5
180
  8
0
 10
-19.0
 20
-48.0
 30
0.0
 11
-11.0
 21
-48.0
 31
0.0
  0
LINE
  5
181
  8
0
 10
-50.0
 20
-61.0
 30
0.0
 11
-50.0
 21
-44.0
 31
0.0
  0
LINE
  5
182
  8
0
 10
-51.0
 20
-62.0
 30
0.0
 11
-51.0
 21
-44.0
 31
0.0
  0
LINE
  5
183
  8
0
 10
-50.0
 20
-43.0
 30
0.0
 11
-50.0
 21
-37.0
 31
0.0
  0
LINE
  5
184
  8
0
 10
-51.0
 20
-43.0
 30
0.0
 11
-51.0
 21
-17.0
 31
0.0
  0
LINE
  5
185
  8
0
 10
-51.0
 20
-2.0
 30
0.0
 11
-51.0
 21
-16.0
 31
0.0
  0
LINE
  5
187
  8
0
 10
-50.0
 20
-16.0
 30
0.0
 11
-50.0
 21
-3.0
 31
0.0
  0
LINE
  5
188
  8
0
 10
-45.0
 20
-3.0
 30
0.0
 11
-44.9742986265432
 21
-11.54772031305599
 31
0.0
  0
LINE
  5
189
  8
0
 10
-45.0
 20
-12.0
 30
0.0
 11
-45.0
 21
-32.0
 31
0.0
  0
LINE
  5
18A
  8
0
 10
-44.0
 20
-48.0
 30
0.0
 11
-44.0
 21
-12.0
 31
0.0
  0
LINE
  5
18B
  8
0
 10
-44.0
 20
-11.547720313056
 30
0.0
 11
-44.0
 21
-2.0
 31
0.0
  0
LINE
  5
18C
  8
0
 10
-50.0
 20
-17.0
 30
0.0
 11
-50.0
 21
-32.0
 31
0.0
  0
LINE
  5
18D
  8
0
 10
-22.0
 20
13.5527
 30
0.0
 11
-22.0
 21
1.0
 31
0.0
  0
LINE
  5
18E
  8
0
 10
-22.0
 20
0.0
 30
0.0
 11
-22.0
 21
-13.5527
 31
0.0
  0
LINE
  5
18F
  8
0
 10
-20.0
 20
0.0
 30
0.0
 11
-20.0
 21
-8.0
 31
0.0
  0
LINE
  5
190
  8
0
 10
-20.0
 20
1.0
 30
0.0
 11
-20.0
 21
8.0
 31
0.0
  0
LINE
  5
191
  8
0
 10
3.536373285322384
 20
-60.01701755928363
 30
0.0
 11
3.536373285322384
 21
-26.0
 31
0.0
  0
LINE
  5
192
  8
0
 10
5.0
 20
-26.0
 30
0.0
 11
5.0
 21
-61.0
 31
0.0
  0
LINE
  5
193
  8
0
 10
8.0
 20
-61.0
 30
0.0
 11
8.0
 21
-26.0
 31
0.0
  0
LINE
  5
194
  8
0
 10
9.0
 20
-26.0
 30
0.0
 11
9.0
 21
-48.0
 31
0.0
  0
LINE
  5
195
  8
0
 10
8.0
 20
-25.0
 30
0.0
 11
8.0
 21
-10.0
 31
0.0
  0
LINE
  5
196
  8
0
 10
5.0
 20
-10.0
 30
0.0
 11
5.0
 21
-25.0
 31
0.0
  0
LINE
  5
197
  8
0
 10
9.0
 20
-25.0
 30
0.0
 11
9.0
 21
-15.0
 31
0.0
  0
LINE
  5
198
  8
0
 10
27.0
 20
6.0
 30
0.0
 11
27.0
 21
-6.5
 31
0.0
  0
LINE
  5
199
  8
0
 10
26.0
 20
-9.31564
 30
0.0
 11
26.0
 21
-13.0
 31
0.0
  0
LINE
  5
19A
  8
0
 10
26.0
 20
-6.5
 30
0.0
 11
26.0
 21
0.0
 31
0.0
  0
LINE
  5
19B
  8
0
 10
25.85637328532238
 20
1.470982440716355
 30
0.0
 11
26.0
 21
6.0
 31
0.0
  0
LINE
  5
19C
  8
0
 10
25.85637328532238
 20
7.374982440716359
 30
0.0
 11
25.85637328532238
 21
13.27898244071636
 31
0.0
  0
LINE
  5
19D
  8
0
 10
27.0
 20
7.37498244071636
 30
0.0
 11
27.0
 21
9.31564
 31
0.0
  0
LINE
  5
19E
  8
0
 10
3.536373285322384
 20
30.0
 30
0.0
 11
3.536373285322384
 21
-25.00000000000001
 31
0.0
  0
LINE
  5
19F
  8
0
 10
8.0
 20
33.0
 30
0.0
 11
9.0
 21
33.0
 31
0.0
  0
LINE
  5
1A0
  8
0
 10
8.0
 20
32.0
 30
0.0
 11
9.0
 21
32.0
 31
0.0
  0
LINE
  5
3E0
  8
0
 10
9.0
 20
46.5
 30
0.0
 11
9.0
 21
33.0
 31
0.0
  0
LINE
  5
3E1
  8
0
 10
9.0
 20
32.0
 30
0.0
 11
9.0
 21
15.0
 31
0.0
  0
LINE
  5
3E2
  8
0
 10
8.0
 20
32.0
 30
0.0
 11
8.0
 21
9.0
 31
0.0
  0
LINE
  5
3E3
  8
0
 10
8.0
 20
35.0
 30
0.0
 11
8.0
 21
33.0
 31
0.0
  0
LINE
  5
3E4
  8
0
 10
-2.0
 20
46.0
 30
0.0
 11
-2.0
 21
46.5
 31
0.0
  0
LINE
  5
3E5
  8
0
 10
-1.7
 20
45.99999999999999
 30
0.0
 11
-1.699999999999999
 21
46.5
 31
0.0
  0
LINE
  5
3E6
  8
0
 10
-1.700000000000001
 20
41.0
 30
0.0
 11
-1.699999999999999
 21
42.0
 31
0.0
  0
LINE
  5
3E7
  8
0
 10
-1.0
 20
41.0
 30
0.0
 11
-1.0
 21
42.0
 31
0.0
  0
LINE
  5
3E8
  8
0
 10
-1.0
 20
39.0
 30
0.0
 11
-1.0
 21
38.0
 31
0.0
  0
LINE
  5
3E9
  8
0
 10
-0.4
 20
39.0
 30
0.0
 11
-0.3999999999999999
 21
38.0
 31
0.0
  0
LINE
  5
3EA
  8
0
 10
-5.6
 20
38.0
 30
0.0
 11
-5.599999999999998
 21
39.0
 31
0.0
  0
LINE
  5
3EB
  8
0
 10
-6.6
 20
39.0
 30
0.0
 11
-6.6
 21
38.0
 31
0.0
  0
LINE
  5
3EC
  8
0
 10
-14.0
 20
46.49999999999999
 30
0.0
 11
-14.0
 21
46.0
 31
0.0
  0
LINE
  5
3ED
  8
0
 10
-13.6
 20
46.49999999999999
 30
0.0
 11
-13.6
 21
46.0
 31
0.0
  0
LINE
  5
3EE
  8
0
 10
-19.0
 20
41.0
 30
0.0
 11
-19.0
 21
42.0
 31
0.0
  0
LINE
  5
3EF
  8
0
 10
-18.0
 20
41.0
 30
0.0
 11
-18.0
 21
42.0
 31
0.0
  0
LINE
  5
3F2
  8
0
 10
-27.4
 20
42.99999999999999
 30
0.0
 11
-27.4
 21
43.62355257103185
 31
0.0
  0
LINE
  5
3F3
  8
0
 10
-26.9
 20
42.99999999999999
 30
0.0
 11
-26.9
 21
43.62355257103185
 31
0.0
  0
LINE
  5
3F4
  8
0
 10
-49.0
 20
43.62355257103185
 30
0.0
 11
-27.4
 21
43.62355257103185
 31
0.0
  0
LINE
  5
3F5
  8
0
 10
-26.9
 20
43.62355257103185
 30
0.0
 11
-22.57212362825788
 21
43.62355257103185
 31
0.0
  0
LINE
  5
3F6
  8
0
 10
-22.0
 20
43.0
 30
0.0
 11
-26.9
 21
42.99999999999999
 31
0.0
  0
LINE
  5
3F7
  8
0
 10
-51.0
 20
43.0
 30
0.0
 11
-27.4
 21
42.99999999999999
 31
0.0
  0
LINE
  5
3F8
  8
0
 10
-50.0
 20
46.5
 30
0.0
 11
-14.0
 21
46.49999999999999
 31
0.0
  0
LINE
  5
3F9
  8
0
 10
-21.0
 20
42.0
 30
0.0
 11
-19.0
 21
42.0
 31
0.0
  0
LINE
  5
3FA
  8
0
 10
-21.0
 20
41.0
 30
0.0
 11
-19.0
 21
41.0
 31
0.0
  0
LINE
  5
3FB
  8
0
 10
-18.0
 20
41.0
 30
0.0
 11
-17.0
 21
41.0
 31
0.0
  0
LINE
  5
3FC
  8
0
 10
-21.0
 20
46.0
 30
0.0
 11
-14.0
 21
46.0
 31
0.0
  0
LINE
  5
3FE
  8
0
 10
-13.6
 20
46.49999999999999
 30
0.0
 11
-2.0
 21
46.5
 31
0.0
  0
LINE
  5
3FF
  8
0
 10
-13.6
 20
46.0
 30
0.0
 11
-2.0
 21
46.0
 31
0.0
  0
LINE
  5
400
  8
0
 10
-1.699999999999999
 20
46.5
 30
0.0
 11
9.0
 21
46.5
 31
0.0
  0
LINE
  5
401
  8
0
 10
8.0
 20
46.0
 30
0.0
 11
-1.7
 21
45.99999999999999
 31
0.0
  0
LINE
  5
402
  8
0
 10
-1.699999999999999
 20
42.0
 30
0.0
 11
-18.0
 21
42.0
 31
0.0
  0
LINE
  5
403
  8
0
 10
-13.0
 20
41.0
 30
0.0
 11
-1.700000000000001
 21
41.0
 31
0.0
  0
LINE
  5
404
  8
0
 10
-1.0
 20
41.0
 30
0.0
 11
8.0
 21
41.0
 31
0.0
  0
LINE
  5
405
  8
0
 10
8.0
 20
42.0
 30
0.0
 11
-1.0
 21
42.0
 31
0.0
  0
LINE
  5
406
  8
0
 10
-0.4
 20
39.0
 30
0.0
 11
8.0
 21
39.0
 31
0.0
  0
LINE
  5
407
  8
0
 10
-13.0
 20
39.0
 30
0.0
 11
-6.6
 21
39.0
 31
0.0
  0
LINE
  5
408
  8
0
 10
-5.599999999999998
 20
39.0
 30
0.0
 11
-1.0
 21
39.0
 31
0.0
  0
LINE
  5
409
  8
0
 10
-16.0
 20
38.0
 30
0.0
 11
-6.6
 21
38.0
 31
0.0
  0
LINE
  5
40A
  8
0
 10
-5.6
 20
38.0
 30
0.0
 11
-3.817836934156375
 21
38.0
 31
0.0
  0
LINE
  5
40B
  8
0
 10
-3.0
 20
38.0
 30
0.0
 11
-1.0
 21
38.0
 31
0.0
  0
LINE
  5
40C
  8
0
 10
-0.3999999999999999
 20
38.0
 30
0.0
 11
8.004061642661178
 21
38.0
 31
0.0
  0
ENDSEC
  0
EOF
